<mxfile host="app.diagrams.net" modified="2024-01-15T14:08:34.145Z" agent="Mozilla/5.0 (Windows NT 10.0; Win64; x64) AppleWebKit/537.36 (KHTML, like Gecko) Chrome/119.0.0.0 Safari/537.36 OPR/105.0.0.0" etag="uvIuwBazRZ13pLVRPKz6" version="22.1.18" type="github">
  <diagram name="Страница — 1" id="sfXHjTrYu6h1Sz9sCr_c">
    <mxGraphModel dx="2462" dy="738" grid="1" gridSize="10" guides="1" tooltips="1" connect="1" arrows="1" fold="1" page="1" pageScale="1" pageWidth="827" pageHeight="1169" math="0" shadow="0">
      <root>
        <mxCell id="0" />
        <mxCell id="1" parent="0" />
        <mxCell id="3aFkIscJD6onxiA6AKRw-1" value="Nova" style="rounded=1;whiteSpace=wrap;html=1;absoluteArcSize=1;arcSize=14;strokeWidth=2;" vertex="1" parent="1">
          <mxGeometry x="190" y="30" width="110" height="50" as="geometry" />
        </mxCell>
        <mxCell id="3aFkIscJD6onxiA6AKRw-3" value="Nova developers" style="shape=parallelogram;html=1;strokeWidth=2;perimeter=parallelogramPerimeter;whiteSpace=wrap;rounded=1;arcSize=12;size=0.23;" vertex="1" parent="1">
          <mxGeometry x="60" y="140" width="133.33" height="40" as="geometry" />
        </mxCell>
        <mxCell id="3aFkIscJD6onxiA6AKRw-4" value="Nova Learn" style="shape=parallelogram;html=1;strokeWidth=2;perimeter=parallelogramPerimeter;whiteSpace=wrap;rounded=1;arcSize=12;size=0.23;" vertex="1" parent="1">
          <mxGeometry x="276.66" y="140" width="133.33" height="40" as="geometry" />
        </mxCell>
        <mxCell id="3aFkIscJD6onxiA6AKRw-5" value="Nova IT" style="shape=parallelogram;html=1;strokeWidth=2;perimeter=parallelogramPerimeter;whiteSpace=wrap;rounded=1;arcSize=12;size=0.23;" vertex="1" parent="1">
          <mxGeometry x="220" y="240" width="133.33" height="40" as="geometry" />
        </mxCell>
        <mxCell id="3aFkIscJD6onxiA6AKRw-6" value="Nova English" style="shape=parallelogram;html=1;strokeWidth=2;perimeter=parallelogramPerimeter;whiteSpace=wrap;rounded=1;arcSize=12;size=0.23;" vertex="1" parent="1">
          <mxGeometry x="323.33" y="240" width="133.33" height="40" as="geometry" />
        </mxCell>
        <mxCell id="3aFkIscJD6onxiA6AKRw-7" value="" style="strokeWidth=2;html=1;shape=mxgraph.flowchart.annotation_2;align=left;labelPosition=right;pointerEvents=1;rotation=90;" vertex="1" parent="1">
          <mxGeometry x="318.33" y="160" width="50" height="100" as="geometry" />
        </mxCell>
        <mxCell id="3aFkIscJD6onxiA6AKRw-8" value="" style="strokeWidth=2;html=1;shape=mxgraph.flowchart.annotation_2;align=left;labelPosition=right;pointerEvents=1;rotation=90;" vertex="1" parent="1">
          <mxGeometry x="220" width="50" height="220" as="geometry" />
        </mxCell>
        <mxCell id="3aFkIscJD6onxiA6AKRw-10" value="Nova Labs" style="shape=parallelogram;html=1;strokeWidth=2;perimeter=parallelogramPerimeter;whiteSpace=wrap;rounded=1;arcSize=12;size=0.23;" vertex="1" parent="1">
          <mxGeometry x="90" y="320" width="133.33" height="40" as="geometry" />
        </mxCell>
        <mxCell id="3aFkIscJD6onxiA6AKRw-13" value="Nova Lectures" style="shape=parallelogram;html=1;strokeWidth=2;perimeter=parallelogramPerimeter;whiteSpace=wrap;rounded=1;arcSize=12;size=0.23;" vertex="1" parent="1">
          <mxGeometry x="330" y="320" width="133.33" height="40" as="geometry" />
        </mxCell>
        <mxCell id="3aFkIscJD6onxiA6AKRw-15" value="" style="strokeWidth=2;html=1;shape=mxgraph.flowchart.annotation_2;align=left;labelPosition=right;pointerEvents=1;rotation=90;" vertex="1" parent="1">
          <mxGeometry x="270" y="180" width="28.33" height="239.58" as="geometry" />
        </mxCell>
        <mxCell id="3aFkIscJD6onxiA6AKRw-16" value="Nova Practice" style="shape=parallelogram;html=1;strokeWidth=2;perimeter=parallelogramPerimeter;whiteSpace=wrap;rounded=1;arcSize=12;size=0.23;" vertex="1" parent="1">
          <mxGeometry x="217.5" y="320" width="133.33" height="40" as="geometry" />
        </mxCell>
        <mxCell id="3aFkIscJD6onxiA6AKRw-17" value="" style="verticalLabelPosition=bottom;verticalAlign=top;html=1;strokeWidth=2;shape=mxgraph.arrows2.arrow;dy=0.6;dx=40;notch=0;rotation=-180;" vertex="1" parent="1">
          <mxGeometry x="168.32999999999998" y="370" width="200" height="20" as="geometry" />
        </mxCell>
        <mxCell id="3aFkIscJD6onxiA6AKRw-20" value="" style="shape=curlyBracket;whiteSpace=wrap;html=1;rounded=1;labelPosition=left;verticalLabelPosition=middle;align=right;verticalAlign=middle;" vertex="1" parent="1">
          <mxGeometry x="550" y="280" width="20" height="120" as="geometry" />
        </mxCell>
        <mxCell id="3aFkIscJD6onxiA6AKRw-21" value="" style="endArrow=none;dashed=1;html=1;dashPattern=1 3;strokeWidth=2;rounded=0;entryX=0.1;entryY=0.5;entryDx=0;entryDy=0;entryPerimeter=0;exitX=1;exitY=0.5;exitDx=0;exitDy=0;" edge="1" parent="1" source="3aFkIscJD6onxiA6AKRw-13" target="3aFkIscJD6onxiA6AKRw-20">
          <mxGeometry width="50" height="50" relative="1" as="geometry">
            <mxPoint x="360" y="330" as="sourcePoint" />
            <mxPoint x="410" y="280" as="targetPoint" />
          </mxGeometry>
        </mxCell>
        <mxCell id="3aFkIscJD6onxiA6AKRw-22" value="&lt;h1&gt;About &quot;Nova Lectures&quot;&lt;/h1&gt;&lt;p&gt;Это лекции, теоретические материалы и все ссылки, которые несут не прямую ценность для программиста. Реализовано на сайте-платформе как последовательный туториал&lt;/p&gt;" style="text;html=1;strokeColor=none;fillColor=none;spacing=5;spacingTop=-20;whiteSpace=wrap;overflow=hidden;rounded=0;" vertex="1" parent="1">
          <mxGeometry x="570" y="280" width="290" height="120" as="geometry" />
        </mxCell>
        <mxCell id="3aFkIscJD6onxiA6AKRw-23" value="" style="shape=curlyBracket;whiteSpace=wrap;html=1;rounded=1;labelPosition=left;verticalLabelPosition=middle;align=right;verticalAlign=middle;" vertex="1" parent="1">
          <mxGeometry x="550" y="410" width="20" height="100" as="geometry" />
        </mxCell>
        <mxCell id="3aFkIscJD6onxiA6AKRw-24" value="" style="endArrow=none;dashed=1;html=1;dashPattern=1 3;strokeWidth=2;rounded=0;entryX=0.1;entryY=0.5;entryDx=0;entryDy=0;entryPerimeter=0;exitX=0.5;exitY=1;exitDx=0;exitDy=0;" edge="1" parent="1" target="3aFkIscJD6onxiA6AKRw-23" source="3aFkIscJD6onxiA6AKRw-16">
          <mxGeometry width="50" height="50" relative="1" as="geometry">
            <mxPoint x="430.005" y="410" as="sourcePoint" />
            <mxPoint x="354.17" y="410" as="targetPoint" />
            <Array as="points">
              <mxPoint x="284" y="460" />
            </Array>
          </mxGeometry>
        </mxCell>
        <mxCell id="3aFkIscJD6onxiA6AKRw-26" value="&lt;h1&gt;About &quot;Nova Practice&quot;&lt;/h1&gt;&lt;p&gt;Это практика индивидуальная или в команде, которая позволяет создать свое портфолио и поработать в небольших учебных проектах с поддержкой от менторов&lt;/p&gt;" style="text;html=1;strokeColor=none;fillColor=none;spacing=5;spacingTop=-20;whiteSpace=wrap;overflow=hidden;rounded=0;" vertex="1" parent="1">
          <mxGeometry x="570" y="400" width="270" height="110" as="geometry" />
        </mxCell>
        <mxCell id="3aFkIscJD6onxiA6AKRw-27" value="" style="shape=curlyBracket;whiteSpace=wrap;html=1;rounded=1;labelPosition=left;verticalLabelPosition=middle;align=right;verticalAlign=middle;" vertex="1" parent="1">
          <mxGeometry x="550" y="530" width="20" height="140" as="geometry" />
        </mxCell>
        <mxCell id="3aFkIscJD6onxiA6AKRw-28" value="" style="endArrow=none;dashed=1;html=1;dashPattern=1 3;strokeWidth=2;rounded=0;entryX=0.1;entryY=0.5;entryDx=0;entryDy=0;entryPerimeter=0;exitX=0.5;exitY=1;exitDx=0;exitDy=0;" edge="1" parent="1" target="3aFkIscJD6onxiA6AKRw-27" source="3aFkIscJD6onxiA6AKRw-10">
          <mxGeometry width="50" height="50" relative="1" as="geometry">
            <mxPoint x="282" y="470" as="sourcePoint" />
            <mxPoint x="352.17" y="520" as="targetPoint" />
            <Array as="points">
              <mxPoint x="157" y="600" />
            </Array>
          </mxGeometry>
        </mxCell>
        <mxCell id="3aFkIscJD6onxiA6AKRw-29" value="&lt;h1&gt;About &quot;Nova Labs&quot;&lt;/h1&gt;&lt;p&gt;Это в чистом роде практика написания кода, без непосредственного руководительства со стороны руководства, которая помогает улучшить практические навыки работы в больших командах, реализует возможность создания своей команды, стартапа и тд.&lt;/p&gt;" style="text;html=1;strokeColor=none;fillColor=none;spacing=5;spacingTop=-20;whiteSpace=wrap;overflow=hidden;rounded=0;" vertex="1" parent="1">
          <mxGeometry x="570" y="530" width="270" height="140" as="geometry" />
        </mxCell>
        <mxCell id="3aFkIscJD6onxiA6AKRw-30" value="" style="shape=curlyBracket;whiteSpace=wrap;html=1;rounded=1;labelPosition=left;verticalLabelPosition=middle;align=right;verticalAlign=middle;rotation=-180;" vertex="1" parent="1">
          <mxGeometry x="851.67" y="290" width="36.66" height="220" as="geometry" />
        </mxCell>
        <mxCell id="3aFkIscJD6onxiA6AKRw-31" value="" style="shape=curlyBracket;whiteSpace=wrap;html=1;rounded=1;labelPosition=left;verticalLabelPosition=middle;align=right;verticalAlign=middle;rotation=-180;" vertex="1" parent="1">
          <mxGeometry x="-60" y="100" width="20" height="120" as="geometry" />
        </mxCell>
        <mxCell id="3aFkIscJD6onxiA6AKRw-32" value="" style="endArrow=none;dashed=1;html=1;dashPattern=1 3;strokeWidth=2;rounded=0;entryX=0;entryY=0.5;entryDx=0;entryDy=0;exitX=0.1;exitY=0.5;exitDx=0;exitDy=0;exitPerimeter=0;" edge="1" parent="1" target="3aFkIscJD6onxiA6AKRw-3" source="3aFkIscJD6onxiA6AKRw-31">
          <mxGeometry width="50" height="50" relative="1" as="geometry">
            <mxPoint x="-40" y="159.13" as="sourcePoint" />
            <mxPoint x="64" y="159.13" as="targetPoint" />
          </mxGeometry>
        </mxCell>
        <mxCell id="3aFkIscJD6onxiA6AKRw-33" value="&lt;h1&gt;About &quot;Nova Developers&quot;&lt;/h1&gt;&lt;p&gt;Это Software developing компания, которая предоставляет услуги полного цикла разработки различного ПО, его поддержки, улучшения, консультирования а так же предоставляет квалифицированные кадры&lt;/p&gt;" style="text;html=1;strokeColor=none;fillColor=none;spacing=5;spacingTop=-20;whiteSpace=wrap;overflow=hidden;rounded=0;" vertex="1" parent="1">
          <mxGeometry x="-370" y="100" width="310" height="130" as="geometry" />
        </mxCell>
      </root>
    </mxGraphModel>
  </diagram>
</mxfile>
